<svg width="210mm" height="297mm" version="1.1" viewBox="0 0 210 297" xmlns="http://www.w3.org/2000/svg">
 <g fill="none" stroke="#000" stroke-width=".26458px">
  <path d="m75.054 79.343c0 2.046 0.08525 2.9609-0.7148 5.361-0.18836 0.5651-0.85098 0.87654-1.0722 1.4296-0.26913 0.67283-0.09726 1.468-0.3574 2.1444-1.591 4.1365-1.1337 0.90768-2.8592 4.6462-0.36345 0.78748-0.26858 1.7581-0.7148 2.5018-0.65156 1.0859-1.8868 1.7522-2.5018 2.8592-0.60404 1.0873-0.62942 2.4117-1.0722 3.574-0.51245 1.3452-1.2951 2.5786-1.787 3.9314-0.4642 1.2766-0.71907 2.6198-1.0722 3.9314-0.48081 1.7859-1.0197 3.5576-1.4296 5.361-0.18669 0.82145-0.20671 1.673-0.3574 2.5018-0.08787 0.48328-0.28794 0.94335-0.3574 1.4296-0.73181 5.1226-0.94549 1.2834-2.1444-0.7148-0.12259-0.20432-0.54632 0.16848-0.7148 0-0.48771-0.48771-0.04893-2.1444-1.4296-2.1444-0.3574 0 0.09404 0.7274 0 1.0722-0.74006 2.7136-1.9265 5.2215-2.5018 4.6462-0.8535-0.85349-1.6302-1.9621-1.787-3.2166-0.08988-0.71907 0.26399-2.5172-0.3574-2.1444-1.8653 1.1192-2.7991 3.1565-4.2888 4.6462-0.16848 0.16848-0.50169-0.10655-0.7148 0-1.4874 0.74371 0.38207-0.0247-0.3574 0.7148-0.18836 0.18837-0.55497 0.14429-0.7148 0.35741-0.29472 0.39295-0.01008 1.0823-0.3574 1.4296-0.08424 0.0842-0.27316-0.0842-0.3574 0-0.78048 0.78048-0.07429 0.58028-0.3574 1.4296-0.16896 0.50689-0.8677 0.5103-1.0722 0.7148-0.30926 0.30926 0.19325 1.7579 0 2.1444-0.01304 0.0261-1.6611 0.16111-2.1444 0-0.3574-0.11914-0.09101-0.80581-0.3574-1.0722-0.15061-0.15062-2.993-0.12421-3.2166 0-6.7621 3.7567 1.9386 0.0181-2.8592 3.2166-0.29738 0.19825-0.72547-0.0867-1.0722 0-0.98539 0.24635-0.51303 1.5852-1.0722 2.1444-0.18837 0.18836-0.61587 0.11006-0.7148 0.3574-0.17698 0.44245 0.07834 0.95955 0 1.4296-0.14258 0.8555-0.44054 1.679-0.7148 2.5018-0.23827 0.7148-0.418 1.4518-0.7148 2.1444-0.13274 0.30971-0.60824 0.39513-0.7148 0.7148-0.15069 0.45208 0.13092 0.9714 0 1.4296-0.118 0.41302-0.57897 0.66471-0.7148 1.0722-0.17051 0.51155-0.08324 2.8592-0.7148 2.8592-0.11913 0-0.31973 0.11302-0.3574 0-0.46489-1.3947 0-5.0524 0-6.4332 0-3.2512 0.03711-6.4469 0.3574-9.6498 0.11854-1.1854-0.28894-2.4182 0-3.574 0.49755-1.9902 1.787-3.9019 1.787-6.0758 0-0.60747-0.43275-1.1842-0.3574-1.787 0.05328-0.42623 0.5456-0.6774 0.7148-1.0722 0.94293-2.2002-0.35721-0.71508 1.0722-2.8592 2.0624-3.0935 4.2484-6.2198 5.7184-9.6498 0.55797-1.3019 0.37617-2.4735 0.7148-3.574 0.53364-1.7343 1.3329-3.3806 2.1444-5.0036 0.17756-0.35513 1.6579-2.6143 1.787-3.2166 0.67657-3.1573-0.22407-3.0277 1.0722-5.361 0.28928-0.52071 0.86305-0.87186 1.0722-1.4296 0.16732-0.44619-0.16732-0.98341 0-1.4296 0.49198-1.312 4.8834-6.0626 5.7184-7.148 0.58562-0.7613 0.81472-1.7639 1.4296-2.5018 0.91838-1.1021 2.0001-2.0989 3.2166-2.8592 0.54404-0.34002 1.2649-0.3419 1.787-0.7148 0.77243-0.55174 2.6869-4.024 3.2166-4.2888 0.31967-0.15983 0.75253 0.15984 1.0722 0 0.45208-0.22604 0.63879-0.81215 1.0722-1.0722 0.74698-0.44819 3.3172-1.3552 4.2888-1.787 2.7644-1.2286 5.3089-2.7006 8.2202-3.574 2.4975-0.74925 4.9578-0.8599 7.5054-1.0722 3.0696-0.2558 6.0015-1.0536 8.935-1.787 1.0092-0.25231 2.187 0.17161 3.2166 0 4.8042-0.8007 9.8012-0.32662 14.653-0.7148 1.6794-0.13436 3.3272-0.54716 5.0036-0.7148 4.7704-0.47704 11.184-0.29022 15.726 1.0722 1.955 0.58649 4.2145 1.3172 6.0758 2.1444 0.39252 0.17446 0.7148 0.47654 1.0722 0.7148 0.7148 0.3574 1.4067 0.76483 2.1444 1.0722 0.69551 0.2898 1.481 0.35758 2.1444 0.7148 0.90233 0.48587 1.5731 1.3536 2.5018 1.787 0.89023 0.41544 1.9272 0.40414 2.8592 0.7148 1.765 0.58832 3.2679 2.0059 5.0036 2.5018 2.6543 0.75838 5.5508 1.9556 7.8628 3.574 1.2536 0.87754 6.5763 8.6923 7.5054 10.365 0.44063 0.79312 0.53567 1.7702 1.0722 2.5018 0.79706 1.0869 1.945 1.8688 2.8592 2.8592 1.0348 1.1211 1.8931 2.3932 2.8592 3.574 2.5018 3.0578 3.4449 6.2095 4.2888 10.007 0.0451 0.20304 0.54047 2.868 0.7148 3.2166 2.1637 4.3275 0.33645-0.77765 1.4296 2.5018 0.11705 0.35115 0.63083 2.7332 0.7148 2.8592 0.14777 0.22165 0.52644 0.16903 0.7148 0.3574 0.25272 0.25272-0.7148 0-1.0722 0-1.1609 0-1.2205-0.71481-2.1444-0.71481-1.4415 0-1.9013-1.4267-2.5018-1.787-0.4212-0.25272-0.97353-0.17497-1.4296-0.3574-1.7578-0.70312-3.1531-2.5376-3.9314-4.2888-0.26056-0.58626-0.7148-1.1454-0.7148-1.787 0-0.11913 0.26958-0.0805 0.3574 0 1.3662 1.2523 2.6589 2.584 3.9314 3.9314 0.8848 0.93685 2.7207 2.064 2.1444 3.2166-0.11913 0.23827-0.59566 0.11914-0.7148 0.3574-0.66814 1.3363 0.076 2.6312-0.3574 3.9314-0.10656 0.31967-0.52789 0.43444-0.7148 0.7148-0.19825 0.29738 0.15983 0.75254 0 1.0722-0.30645 0.6129-3.4158-1.4296-4.2888-1.4296-0.16848 0 0.27673 0.2095 0.3574 0.3574 0.63781 1.1693 1.2559 2.3525 1.787 3.574 1.8028 4.1463 2.8643 8.593 4.2888 12.866 0.0377 0.11302 0.0842-0.27316 0-0.35741-1.0144-1.0144-2.3303-1.7312-3.2166-2.8592-0.46551-0.59246-0.35401-1.4829-0.71481-2.1444-0.87968-1.6128-2.3113-3.3835-3.574-4.6462-0.5394-0.53939-1.304-0.8392-1.787-1.4296-1.048-1.2809-1.8296-2.7764-2.5018-4.2888-0.19949-0.44886-0.13773-0.99025-0.3574-1.4296-0.0348-0.0697-0.63725-0.27985-0.7148-0.3574-0.44692-0.44692-1.1972-2.9929-1.4296-3.574-0.11958-0.29896 0.1434-0.78541 0-1.0722-0.51675-1.0335-2.1444-3.9461-2.1444-5.0036 0-0.16848 0.3574-0.18892 0.3574-0.3574 0-0.11913-0.29132 0.0991-0.3574 0-0.20897-0.31346-0.29546-0.70059-0.3574-1.0722-0.30953-1.8572-0.65342-2.3483-1.4296-4.2888-0.29797-0.74493-0.51677-2.5235-0.7148-3.2166-0.53092-1.8582-2.4717-2.769-2.8592-3.9314-0.11302-0.33906 0.15983-0.75253 0-1.0722-1.05-2.1-2.5914-3.6188-4.6462-4.6462-2.922-1.461 0.36101 0.95908-1.0722-1.4296-0.0803-0.13389-3.7698-3.3316-3.9314-3.574-0.12531-0.18796-0.052-2.0924-0.7148-1.4296-1.777 1.777-0.44469 5.0068-0.7148 7.5054-1.6092 14.885 0.076-2.9917-1.0722 12.509-0.29418 3.9713-0.78903 3.8297-0.35741 8.5776 0.78026 8.5828 0.71481 0.0269 0.71481 3.2166 0 0.11914 0.0342-0.24329 0-0.35739-0.68209-2.2736-1.4826-4.511-2.1444-6.7906-0.67903-2.3389-2.1444-6.476-2.1444-8.935 0-0.11913-0.0557 0.25211 0 0.3574 5.2024 9.8268 1.576 1.5818 5.0036 10.722 0.0935 0.24944 0.62379 0.71481 0.3574 0.71481-0.42954 0-0.7443-0.43734-1.0722-0.71481-2.772-2.3455-5.608-4.6258-8.2202-7.148-0.85705-0.8275-1.3691-1.9547-2.1444-2.8592-0.0775-0.09045 0 0.23826 0 0.3574v1.787c0 0.11913-0.11914 0.3574 0 0.3574 0.11913 0 0.0775-0.26695 0-0.3574-0.65788-0.76752-1.3992-1.4613-2.1444-2.1444-2.2893-2.0985-4.5221-4.3859-6.0758-7.148-1.8366-3.2651-5.3583-15.008-7.148-16.798-0.0842-0.08424-9e-3 0.23859 0 0.3574 0.2295 3.0981 0.90859 6.1918 0.7148 9.2924-0.16765 2.6825-1.7102 5.1761-1.787 7.8628-0.0463 1.6197 1.276 3.0331 1.4296 4.6462 0 15.34-0.4886 5.3399 0.7148 15.368 0.15646 1.3039 0.78768 6.3603 0.3574 6.7906-0.72466 0.72466-1.8869-0.96715-2.5018-1.787-1.5558-2.0744-3.1461-6.2218-3.9314-8.5776-0.0753-0.22603 0.10656-0.50168 0-0.7148-0.4982-0.99641 0.59689 3.0969-0.3574 3.574-1.9075 0.95375-3.8355-4.5743-5.361-5.7184-3e-3 -0.0024 0.34123 2.5342 0 3.2166-0.0533 0.10655-0.24438-0.0377-0.3574 0-1.4793 0.49309 0.12004 0.59611-1.787-0.35741-0.45941-0.2297-1.0778 0.70925-1.4296 0.35741-2.4091-2.4091-2.7183-7.0419-3.9314-10.007-0.46441-1.1352-1.2954-2.0929-1.787-3.2166-0.34763-0.79459-0.35591-1.7122-0.7148-2.5018-0.24649-0.54228-0.86305-0.87186-1.0722-1.4296-0.16732-0.44619 0.11558-0.9673 0-1.4296-0.21035-0.84141-0.52666 1.6552-0.7148 2.5018-0.29466 1.326-0.65654 2.6382-1.0722 3.9314-3.6676 11.41-0.18044 0.84214-7.5054 13.581-3.1943 5.5553-2.4232 6.4307-4.2888 11.794-0.35626 1.0242-2.7374 6.0376-3.2166 6.7906-0.26371 0.4144-1.3004 0.83129-1.4296 0.3574-0.34623-1.2695-0.27532-2.6181-0.3574-3.9314-0.15624-2.4998-0.27665-5.0021-0.3574-7.5054-0.03841-1.1907 0-2.3827 0-3.574 0-2.5734-0.31068-2.6723 0.3574 0 0.02889 0.11557 0.01574-0.23932 0-0.3574-0.22267-1.67-0.7148-3.3188-0.7148-5.0036 0-3.29 1.3021-6.0745 1.0722-9.2924-0.07989-1.1184-0.2017-4.4357-0.7148-5.7184-1.3867-3.4667-2.2767-4.0043-1.0722-8.2202z"/>
  <path d="m166.55 118.66c-0.0587 3.597-0.0845 7.1866 0.35741 10.722 0.10343 0.8275-0.1371 1.6792 0 2.5018 0.22398 1.3439 0.16151 2.5602 0.3574 3.9314 0.0377 0.26372 0.3574 0.44841 0.3574 0.71481 0 0.72465-0.47654 1.4296-0.3574 2.1444 0.40879 2.4527 0.67087 5.0456 0 7.5054-0.33761 1.2379-1.0771 2.3403-1.4296 3.574-0.26988 0.9446-0.34075 1.9508-0.7148 2.8592-0.46701 1.1342-1.2683 2.1051-1.787 3.2166-0.31863 0.68278-0.34889 1.4858-0.7148 2.1444-0.24547 0.44183-0.76894 0.66785-1.0722 1.0722-0.83584 1.1144-2.6647 3.7617-3.2166 5.0036-0.24672 0.55511-0.19052 1.2029-0.3574 1.787-0.56237 1.9683-1.6284 3.297-2.1444 5.361-0.5001 2.0004-2.1442 3.8119-2.8592 5.7184-0.2133 0.56878-0.0857 1.2437-0.3574 1.787-0.34115 0.68229-1.0065 1.1523-1.4296 1.787-1.1093 1.6639-1.6928 3.7281-2.8592 5.361-0.29378 0.4113-0.79184 0.65165-1.0722 1.0722-1.9026 2.8539 1.4585-0.80805-1.0722 2.1444-0.43858 0.51168-1.0252 0.89047-1.4296 1.4296-0.86602 1.1547-1.2784 2.7767-2.1444 3.9314-1.1459 1.5278-2.7238 2.8129-3.9314 4.2888-2.3337 2.8524-4.1824 6.3268-6.7906 8.935-0.72466 0.72466-1.612 1.2785-2.5018 1.787-0.20687 0.11822-0.51655-0.13217-0.7148 0-0.22165 0.14777-0.16904 0.52644-0.3574 0.7148-0.54155 0.54155-2.3719 1.995-3.2166 2.5018-0.35921 0.21552-4.747 0.7148-5.0036 0.7148-4.7103 0-8.9659-0.96681-13.224-2.8592-1.5884-0.70597-3.1285-0.91972-4.6462-1.787-1.5568-0.88959-3.0027-2.1288-4.6462-2.8592-0.44886-0.19949-0.99026-0.13773-1.4296-0.3574-0.76839-0.38419-1.4023-0.99673-2.1444-1.4296-2.1959-1.2809-3.9915-1.7026-6.4332-2.8592-0.86803-0.41117-1.6137-1.0639-2.5018-1.4296-1.1501-0.47357-2.4615-0.51596-3.574-1.0722-0.83223-0.41612-1.3873-1.2462-2.1444-1.787-0.91456-0.65326-1.9331-1.1503-2.8592-1.787-1.0558-0.72583-3.2715-2.8867-4.6462-3.574-0.27915-0.13957-1.4747-0.40251-1.787-0.7148-0.18837-0.18836-0.11913-0.59566-0.3574-0.7148-0.54333-0.27166-1.301 7e-3 -1.787-0.3574-0.21311-0.15983 0.54577-0.52643 0.3574-0.7148-0.34733-0.34733-0.99026-0.13773-1.4296-0.3574-0.33696-0.16848-0.09101-0.80581-0.3574-1.0722-0.08424-0.0842-0.27316 0.0842-0.3574 0-0.44288-0.44288 0.08469-2.2901 0-2.5018-0.08398-0.20996-1.4296-0.88921-1.4296-1.4296 0-0.26639 0.3574-0.44841 0.3574-0.7148 0-0.81398-1.8893-4.9279-2.1444-6.0758-0.10337-0.46519 0.07834-0.95956 0-1.4296-0.24226-1.4536-1.0722-2.8152-1.0722-4.2888 0-0.16848 0.30412-0.19756 0.3574-0.3574 0.46323-1.3897-0.48622-2.7594-1.0722-3.9314"/>
  <path d="m51.466 125.45c-3.4566-1.2721-7.2181-3.1746-10.722-1.0722-2.078 1.2468-1.5848 3.1696-2.5018 5.0036-0.38419 0.76839-1.0741 1.3623-1.4296 2.1444-0.25137 0.55302-0.19757 1.201-0.3574 1.787-1.3769 5.0487-2.9722 8.4076-1.787 13.939 0.68603 3.2015 2.4842 6.2281 4.2888 8.935 0.33042 0.49563 0.83028 0.88528 1.0722 1.4296 0.24671 0.5551 0.1441 1.2182 0.3574 1.787 0.26722 0.71259 4.4907 7.1207 5.0036 7.5054 0.48597 0.36447 1.223 0.13179 1.787 0.3574 2.3942 0.95767 1.1486 1.0164 3.2166 2.1444 1.0715 0.58444 5.8565 2.4902 7.148 2.8592 2.5003 0.71439 2.3012-2.5274 2.5018-3.9314 0.2216-1.5512 0.4345-3.1045 0.7148-4.6462 0.04765-0.2621 0.7148-0.62379 0.7148-0.3574 0 1.1973-0.23826 2.3827-0.3574 3.574"/>
  <path d="m56.469 138.67c-0.47654-0.23827-0.99313-0.40927-1.4296-0.7148-0.76227-0.53359-1.3702-1.2709-2.1444-1.787-0.89191-0.5946-3.9023-1.2654-5.0036-0.7148-0.76459 0.3823-1.4168 0.99303-2.1444 1.4296-0.32304 0.19383-0.75874 0.14843-1.0722 0.35741-1.4338 0.95589-2.5335 2.7519-3.2166 4.2888-0.42336 0.95257-1.3553 3.5253-0.7148 4.6462 0.29553 0.51719 0.98132 0.67996 1.4296 1.0722 1.1547 1.0103 1.8527 1.8198 3.2166 2.5018 0.33696 0.16848 0.77081 0.13136 1.0722 0.3574 0.21311 0.15984 0.16904 0.52644 0.3574 0.7148 0.3465 0.3465 1.6116 0.6726 2.1444 1.0722 0.53914 0.40435 0.86886 1.0558 1.4296 1.4296 0.80906 0.53937 2.1444-2.7325 2.1444-3.2166"/>
  <path d="m51.466 125.45c-0.3574 1.4296-0.97418 2.8185-1.0722 4.2888-0.0693 1.0395 1.6697 1.4706 2.1444 1.787 3.7659 2.5106 6.8848 1.9111 11.079 1.0722 3.1875-0.63751 6.4175-0.71481 9.6498-0.71481"/>
  <path d="m73.267 131.88c0.47653 0.7148 0.99673 2.8865 1.4296 2.1444 1.0954-1.8778 0.20538-4.4395 1.0722-6.4332 0.40862-0.93984 1.6491-1.2185 2.5018-1.787 4.7988-3.1992 6.3451-2.6656 12.152-2.8592 1.6712-0.0557 3.3331-0.28477 5.0036-0.3574 4.1771-0.18162 8.9089-0.57678 12.866 1.0722 1.4046 0.58527 6.3236 3.736 7.5054 5.361 1.0524 1.447 0.81734 3.7283 1.4296 5.361 0.40666 1.0844 1.0722 1.636 1.0722 2.8592 0 0.51534-2.4498 4.5356-2.8592 5.0036-0.42494 0.48564-2.1766 1.6164-2.8592 1.787-0.46231 0.11557-0.97414-0.14014-1.4296 0-9.2194 2.8368 3.0657 0.13629-6.7906 2.5018-4.9618 1.1908-13.557 2.0332-18.585 0.35741-1.0109-0.33697-1.8936-0.979-2.8592-1.4296-1.0632-0.49618-2.3869-0.59993-3.2166-1.4296-0.91491-0.91491-1.1237-2.2216-1.787-3.2166-0.47634-0.7145-2.2577-1.6562-2.5018-2.1444-1.2133-2.4265 0.40677-4.2394-2.1444-6.7906"/>
  <path d="m121.52 133.31c1.2014-0.69826 4.6047-3.3365 5.7184-2.8592 0.37909 0.16247 3.5666 2.5018 3.574 2.5018"/>
  <path d="m130.81 132.95c1.0722-1.4296 2.2695-2.7734 3.2166-4.2888 0.3366-0.53857 0.18405-1.6136 0.7148-2.1444 1.0578-1.0578 2.8156-2.6641 4.2888-3.2166 0.44619-0.16732 0.96527 0.10715 1.4296 0 3.4424-0.79439 2.734-1.3096 6.0758-1.787 3.1414-0.44877 5.1581-0.3574 8.2202-0.3574 2.5184 0 5.8354-0.47761 8.2202 0.7148 2.2874 1.1437 0.64785 1.0276 2.8592 2.5018 0.53381 0.35587 1.2942 0.30409 1.787 0.7148 0.63394 0.52828 1.2334 3.4584 1.787 4.2888 0.28037 0.42055 0.84616 0.62012 1.0722 1.0722 0.80273 1.6054 1.0687 3.949 0.7148 5.7184-0.71531 3.5766-4.1179 4.1772-7.148 5.0036-1.2436 0.33916-4.6531 0.89696-5.7184 1.4296-0.23827 0.11913-0.16903 0.52643-0.3574 0.7148-0.01 0.01-4.3884-0.0615-5.0036 0-3.466 0.34659-9.0439 0.93492-12.509 0.3574-0.26276-0.0438-0.45047-0.32436-0.7148-0.3574-2.6743-0.33429-5.7315-0.37053-7.8628-2.5018-3.1173-3.1173-4.5153-5.0716-3.2166-9.2924 0.22158-0.72015 0.63159-1.3955 0.7148-2.1444 0.0416-0.37443-0.49732-1.422-0.3574-1.0722 0.61626 1.5407 1.1913 3.0975 1.787 4.6462"/>
  <path d="m170.84 131.52c2.4181-1.1338 1.0669-1.899 1.787-2.8592 0.30326-0.40436 1.5626-0.94962 1.0722-1.0722-0.46231-0.11558-0.95786 0.0674-1.4296 0-2.9584-0.42263 1.049-0.16647-1.787-1.787-0.51718-0.29553-1.2219 0.18837-1.787 0-0.25272-0.0842-0.15692-0.53938-0.3574-0.7148-0.77126-0.67485-1.5558-1.3928-2.5018-1.787-0.54985-0.2291-1.1994 0.0979-1.787 0-0.33238-0.0554-0.41341-0.56411-0.7148-0.7148-0.33696-0.16848-1.3108-0.0658-1.0722-0.3574 1.1784-1.4403 2.8592-2.3827 4.2888-3.574"/>
  <path d="m107.58 114.37c-1.184 0.16179-2.3876-0.10786-3.574 0-8.8459 0.80417 3.9559-0.20773-5.0036 1.0722-0.26371 0.0377-0.16903-0.52643-0.3574-0.7148-0.16848-0.16848-0.47653 0-0.7148 0h-2.1444-3.9314c-0.59567 0-1.2542-0.26639-1.787 0-0.35456 0.17728-0.702 0.5914-1.0722 0.7148-0.22604 0.0754-0.52419-0.14296-0.7148 0-0.34363 0.25773-0.33061 0.88011-0.7148 1.0722-0.64816 0.32408-1.4503 0.14917-2.1444 0.3574-2.2736 0.68209-4.4169 2.1444-6.7906 2.1444-0.80331 0 7.1127-3.324 10.007-4.2888 0.11302-0.0377-0.29132-0.0991-0.3574 0-0.20897 0.31346-0.18892 0.73524-0.3574 1.0722-0.05328 0.10656-0.09913-0.29132 0-0.3574 0.66495-0.4433 1.3789-0.84256 2.1444-1.0722 2.0093-0.60278 1.787 0.85213 1.787 2.1444 0 0.11914-0.11219-0.31733 0-0.3574 1.1801-0.42147 4.7787-1.832 6.7906-1.4296 0.11682 0.0234 0.01958 0.23989 0 0.3574-0.49914 2.9949 0.03697 1.0916-2.8592 3.574-0.09045 0.0775-0.03768 0.47042 0 0.3574 0.15533-0.466-0.01228-1.1062 0.3574-1.4296 1.6835-1.473 6.8189-2.1444 9.2924-2.1444 0.11913 0-0.23979-0.019-0.3574 0-3.5771 0.57695-7.1182 1.4116-10.722 1.787-9.5708 0.99695-4.3815-1.6943-7.5054 1.4296"/>
  <path d="m141.17 114.01c1.7972 0.19751 4.5466-3.3162 5.7184-2.1444 1.6615 1.6615-2.1642 4.1961-3.574 6.0758-0.91539 1.2205 1.691-2.5927 2.8592-3.574 1.8471-1.5516 3.9671-2.7599 6.0758-3.9314 0.67187-0.37326-0.1149 2.7784 0.71481 2.5018 1.6802-0.56006 3.2719-1.4159 5.0036-1.787 0.23599-0.0506-1.2578 3.574-0.7148 3.574 0.42954 0 0.3629-0.82587 0.7148-1.0722 0.87294-0.61106 1.8578-1.0654 2.8592-1.4296 2.3896-0.86896 0.3113 1.2797 1.0722 1.787 0.29738 0.19825 0.71757 0.0443 1.0722 0 4.0399-0.50499 3.574-0.25884 3.574 4.6462"/>
  <path d="m84.347 135.81c1.2463-1.5683 2.6871-1.4325 4.2888-2.1444 0.54433-0.24193 0.89682-0.80581 1.4296-1.0722 2.0669-1.0334 9.762-0.99092 11.794-1.0722 1.4284-0.0571 2.8592 0 4.2888 0 0.3574 0 0.81948-0.25272 1.0722 0 0.71975 0.71975-0.75032 1.8936-1.0722 2.8592-0.19209 0.57629 0.0315 1.3203-0.3574 1.787-0.31446 0.37735-0.94794 0.26107-1.4296 0.35741-0.57457 0.11491-1.1584 0.20023-1.787 0.35739-1.5362-0.74589-0.39514 0.60825-0.7148 0.71481-0.79115 0.26371-1.6928-0.20226-2.5018 0-0.98748 0.24687-1.8684 0.83906-2.8592 1.0722-3.0806 0.72484-7.5082 1.2504-10.722 0.7148-0.26277-0.0438-0.45358-0.30516-0.7148-0.3574-0.35046-0.0701-0.75253 0.15983-1.0722 0-0.94904-0.47452-0.89354-3.9312-0.7148-5.0036 0.09041-0.54243 2.138-1.787 1.0722-1.787"/>
  <path d="m92.209 135.81c-3.9624-1.7002 1.6264-3.8658 3.574-3.2166 1.9851 0.66168 3.179 4.7716-0.3574 5.361-0.74693 0.12449-3.2482 0.32581-3.574 0-0.40369-0.4037-0.63903-1.8953 0.3574-2.1444 2.3051-0.57627 2.4602 1.5294 2.8592 2.8592 0.49926 1.6642 0.23206 1.667-1.4296 1.4296-0.48626-0.0695-1.2099 0.0819-1.4296-0.3574-0.37295-0.74589 0-1.6679 0-2.5018 0-0.47654-0.33696-1.0926 0-1.4296 0.31899-0.31899 3.2215-1.3039 3.9314-0.3574 1.3929 1.8572 0.04185 0.48296 0.3574 1.4296 0.3756 1.1268 0.53879 1.787-0.7148 1.787-0.3574 0-0.78628 0.21444-1.0722 0-0.85421-0.64066-0.60944-6.279 1.0722-5.7184 0.67718 0.22572 0.87156 0.36994 1.0722 1.0722 0.23142 0.80999 0.73413 1.7483 0.3574 2.5018-0.34711 0.69421-4.0421-0.6041-2.8592-1.787 1.3653-1.3653 3.4759 3.2548 0.7148 2.5018-6.0534-1.6509-2.9875-6.2958 0.3574-4.2888 0.38314 0.22988 0.55456 1.898 0.3574 2.1444-0.39711 0.49639-3.0221 1.2667-3.574 0.7148-2.2224-2.2224-0.6262-3.2767 1.0722-2.1444 0.4087 0.27247-0.1338 1.4296 0.3574 1.4296 0.11913 0-0.02336-0.24058 0-0.3574 0.32578-1.6289-0.08407-2.3546 1.4296-2.8592"/>
  <path d="m146.53 132.6c1.9029-1.6433 9.2251-6.7684 12.509-5.361 0.54751 0.23465 0.88733 0.82572 1.4296 1.0722 0.89435 0.40652 2.1646 0.0201 2.8592 0.7148 0.4874 0.4874-5.2721 2.0999-6.0758 2.5018-0.3842 0.1921-0.67739 0.5456-1.0722 0.71481-0.45148 0.19349-1.0084 0.10468-1.4296 0.3574-0.22843 0.13705-0.11913 0.59566-0.3574 0.7148-0.31967 0.15983-0.72547-0.0867-1.0722 0-0.41672 0.10418-0.65549 0.61062-1.0722 0.7148-2.0325 0.50814-3.6491 0.7148-5.7184 0.7148-0.95306 0-1.9668 0.33465-2.8592 0-0.74825-0.28059-2.7362-2.1444-0.3574-2.1444"/>
  <path d="m146.53 132.6c1.787-0.71481 3.6395-1.2837 5.361-2.1444 0.45208-0.22604 0.63878-0.81215 1.0722-1.0722 1.4188-0.85126 2.8862 1.0992 3.574 1.787 0.0842 0.0842 0.27316-0.0842 0.3574 0 0.8082 0.8082-2.8592 0.18428-2.8592-1.4296 0-0.4912 1.2361-0.0941 1.4296 0.3574 1.2395 2.8922-2.5007 2.6815-3.574 1.787-0.82707-0.68922-0.78556-3.5942 1.787-2.8592 1.2921 0.36918 1.9649 3.2465 0 3.574-0.35254 0.0587-0.83685 0.26897-1.0722 0-2.368-2.7063-1.7217-3.1086 0.7148-5.0036 0.29737-0.2313 0.69547-0.35741 1.0722-0.35741 1.1909 0 1.3464 2.0365 1.0722 2.8592-1.3897 4.169-2.2941-0.41537-2.1444-0.7148 0.2782-0.55641 1.8703 0.16659 2.1444 0.7148 0.44214 0.88428-1.1067 1.5448-1.4296 1.787"/>
  <path d="m130.81 132.95c-0.53948 8.6317-1.293 3.0461 2.5018 10.365 1.9278 3.7178 3.4757 7.4572 4.6462 11.437 0.47 1.598 2.2367 4.2598 1.4296 6.0758-2.3736 5.3407-18.936 8.2225-24.303 6.0758-0.51592-0.20637-2.3398-0.94353-2.5018-1.4296-0.53663-1.6099 0.7148-3.3713 0.7148-5.0036"/>
  <path d="m118.3 165.83c0.81961-2.51 1.1824-2.7423 3.574-2.1444 0.23116 0.0578 0.52419-0.14296 0.71481 0 0.12604 0.0945 2.1444 3.2573 2.1444 2.1444 0-0.11913-0.24019 0.0213-0.3574 0-1.1953-0.21733-2.4103-0.36569-3.574-0.7148-0.11411-0.0342 0.11914-0.3574 0-0.3574-0.47653 0 0.11558 0.9673 0 1.4296-0.0279 0.11166-0.48147 0.59074-0.7148 0.3574-0.0596-0.0596-0.11913-1.1913 0.3574-0.7148 0.11914 0.11914-0.33357 0.52419-0.3574 0.3574-0.11913-0.83393 0.0445-3.284 0.3574-2.5018 0.48187 1.2047 0.0682 2.2126 1.0722 3.2166 0.16848 0.16848 0.47654 0 0.71481 0 0.11913 0-0.2621 0.0715-0.35741 0-0.53913-0.40436-1.4296-0.75569-1.4296-1.4296 0-0.0277 2.547 1.1174 1.4296 0"/>
  <path d="m134.74 163.69v-1.4296c0-2.1227-0.37455-1.4125 0.7148-2.5018 0.0842-0.0842-0.10655-0.30412 0-0.3574 0.41842-0.20921 4.4534-0.16461 3.2166 1.0722-0.52305 0.52305-2.4341-0.26084-3.2166 0-0.11302 0.0377-0.10655 0.30412 0 0.3574 0.21311 0.10656 0.54632-0.16848 0.7148 0 1.8892 1.8892 0.24795 1.787 1.4296 1.787"/>
  <path d="m117.58 186.56c0.47654 0 0.98342 0.16733 1.4296 0 4.1222-1.5458 7.9183-4.0064 12.152-5.361 1.5487-0.3574 3.0975-0.7148 4.6462-1.0722 0.11914-0.11913 0.20671-0.28205 0.3574-0.3574 0.98569-0.49284 4.8929 0.94884 3.9314 1.4296-1.6007 0.80036-3.4354 0.6455-5.0036 1.4296-0.38434 0.19217-1.2521 0.93846-1.787 1.0722-0.76538 0.19134-1.3552 0.16009-2.1444 0.3574-0.74028 0.18507-1.5013 0.85783-2.1444 1.0722-0.22604 0.0754-0.49358-0.0885-0.7148 0-0.39882 0.15953-0.6647 0.57897-1.0722 0.7148-0.67811 0.22604-1.4393-0.11751-2.1444 0-1.916 0.31933-3.7476 0.3574-5.7184 0.3574 2.7755 1.7152 5.5008 6.1846 9.2924 4.2888 1.4874-0.7437-0.38207 0.0247 0.3574-0.7148 1.0357-1.0357 2.5582-1.8434 3.574-2.8592 0.30373-0.30373 0.38867-0.79266 0.7148-1.0722 1.1794-1.0109 2.5994-1.7026 3.9314-2.5018 0.45104-0.27063 5.6319-3.2166 6.0758-3.2166"/>
  <path d="m140.46 196.93c2.3134 1.0074 4.086 4.2474 5.361 6.4332 0.32326 0.55416 0.37478 1.243 0.7148 1.787 0.26789 0.42862 0.84617 0.62012 1.0722 1.0722 0.42938 0.85877 0.59247 3.2166 2.1444 3.2166"/>
  <path d="m61.116 166.91c-1.1913 2.3827-2.5118 4.705-3.574 7.148-0.54572 1.2552 0.89183 3.741 1.0722 5.0036 0.13342 0.93396-0.11704 1.9229 0 2.8592 0.13724 1.0979 0.8059 3.2867 0.7148 4.2888-0.04824 0.5306-0.58558 0.91273-0.7148 1.4296-0.11558 0.4623 0.06739 0.95786 0 1.4296-0.18841 1.3189-0.65496 2.6797-1.0722 3.9314-0.3388 1.0164-0.15633 2.6432-0.7148 3.574-0.83368 1.3895-2.0723 2.5149-2.8592 3.9314-0.4212 0.75816-0.41027 1.6897-0.7148 2.5018-0.41198 1.0986-1.0176 2.118-1.4296 3.2166-0.30453 0.81209-0.32693 1.7261-0.7148 2.5018-0.22604 0.45208-0.79183 0.65165-1.0722 1.0722-1.4447 2.167-0.35792 2.949-3.574 5.361"/>
 </g>
</svg>
